# xmcd CD database file
#
# Track frame offsets:
#	150
#	17775
#	36732
#	59490
#	74940
#	96392
#	118427
#	136725
#	163017
#	189060
#	213390
#
# Disc length: 3068 seconds
#
# Revision: 0
# Processed by: cddbd v1.4PL0 Copyright (c) Steve Scherf et al.
# Submitted via: CDex 1.50beta10
#
DISCID=ae0bfa0b
DTITLE=Sammy Mayfield - Blues By The Bushel
DYEAR=1996
DGENRE=Blues
TTITLE0=Blues By The Bushel
TTITLE1=Since I Fell For You
TTITLE2=Don't Deceive Me
TTITLE3=I Can't Get Over You
TTITLE4=Happy Birthday Song
TTITLE5=Dancin' My Blues Away
TTITLE6=Wooh Me Baby
TTITLE7=Standing By My Window
TTITLE8=King Without A Throne
TTITLE9=Thrill Me To The Bone
TTITLE10=I Can't Get Over You (Instr.)
EXTD=YEAR: 1996
EXTT0=
EXTT1=
EXTT2=
EXTT3=
EXTT4=
EXTT5=
EXTT6=
EXTT7=
EXTT8=
EXTT9=
EXTT10=
PLAYORDER=
